<?xml version="1.0" encoding="utf-8"?>
<!-- Generator: Adobe Illustrator 25.3.0, SVG Export Plug-In . SVG Version: 6.00 Build 0)  -->
<svg version="1.1" id="Capa_1" xmlns="http://www.w3.org/2000/svg" xmlns:xlink="http://www.w3.org/1999/xlink" x="0px" y="0px"
	 viewBox="0 0 1080 1080" style="enable-background:new 0 0 1080 1080;" xml:space="preserve">
<style type="text/css">
	.st0{fill:#4570EA;}
	.st1{fill:#ECF2FF;}
	.st2{fill:#5D87FF;}
</style>
<g>
	<polygon class="st0" points="146.47,491.82 146.47,521.37 201.72,521.37 201.72,558.63 146.47,558.63 146.47,625.45 109.2,625.45 
		109.2,454.55 227.42,454.55 227.42,491.82 	"/>
	<rect x="201.72" y="521.37" class="st1" width="93.8" height="37.26"/>
	<rect x="174.74" y="588.19" class="st1" width="120.79" height="37.26"/>
	<rect x="227.42" y="454.55" class="st1" width="68.1" height="37.26"/>
	<path class="st0" d="M552.24,562.38c-1.71,2.62-4.04,4.69-6.93,6.17c-2.9,1.49-6.13,2.25-9.6,2.25c-6.02,0-10.81-1.91-14.64-5.86
		c-3.78-3.89-5.7-8.87-5.7-14.78c0-5.83,1.92-10.77,5.7-14.69c3.83-3.96,8.62-5.88,14.64-5.88c3.54,0,6.78,0.75,9.62,2.24
		c2.83,1.48,5.15,3.58,6.91,6.24l0.66,1.01l15.03-8.58l-0.81-1.15c-3.42-4.89-7.9-8.75-13.33-11.49c-5.42-2.73-11.5-4.12-18.09-4.12
		c-7.06,0-13.55,1.6-19.29,4.75c-5.75,3.16-10.32,7.57-13.57,13.12c-3.25,5.54-4.89,11.79-4.89,18.56c0,6.85,1.65,13.14,4.89,18.68
		c3.25,5.55,7.8,9.95,13.54,13.09c5.72,3.13,12.22,4.72,19.32,4.72c6.58,0,12.68-1.39,18.12-4.12c5.46-2.74,9.93-6.66,13.31-11.63
		l0.79-1.16l-15.03-8.37L552.24,562.38z"/>
	<path class="st2" d="M710.35,492.22v12.41h-51.83v27.34h45.28v11.59h-45.1v29.85h52.97v12.6h-68.02v-93.8L710.35,492.22
		L710.35,492.22z"/>
	<path class="st2" d="M746.54,488.05v97.97h-13.92v-97.97H746.54z"/>
	<path class="st2" d="M834.58,555.98H779.6c1.08,5.33,3.61,9.52,7.59,12.56c3.98,3.04,8.82,4.56,14.53,4.56
		c4,0,7.69-0.82,11.09-2.47s6.09-3.88,8.09-6.72l11.93,7.68c-2.87,4.46-7.12,8.02-12.74,10.68c-5.62,2.66-11.75,4-18.37,4
		c-7.08,0-13.46-1.55-19.12-4.66c-5.67-3.1-10.08-7.39-13.25-12.87s-4.75-11.61-4.75-18.4c0-6.71,1.5-12.8,4.5-18.28
		s7.2-9.78,12.59-12.9s11.42-4.69,18.09-4.69c10.25,0,18.67,3.18,25.27,9.53c6.6,6.35,9.9,14.53,9.9,24.52
		C834.96,551.46,834.83,553.94,834.58,555.98z M779.6,544.55h40.43c-0.29-5.12-2.29-9.26-6-12.4c-3.71-3.14-8.41-4.72-14.12-4.72
		c-5.17,0-9.57,1.52-13.21,4.56C783.04,535.03,780.68,539.22,779.6,544.55z"/>
	<path class="st2" d="M847.23,550.36c0-6.85,1.6-13.08,4.79-18.68s7.62-9.99,13.28-13.19c5.66-3.19,11.98-4.79,18.97-4.79
		c6.51,0,12.44,1.38,17.79,4.15c5.34,2.77,9.7,6.62,13.06,11.56l-12.96,7.6c-1.91-2.98-4.42-5.3-7.5-6.96
		c-3.09-1.66-6.55-2.49-10.38-2.49c-6.43,0-11.7,2.18-15.81,6.55c-4.11,4.36-6.16,9.78-6.16,16.25c0,6.56,2.05,12.01,6.16,16.35
		c4.11,4.34,9.38,6.51,15.81,6.51c3.75,0,7.2-0.83,10.35-2.49c3.15-1.66,5.66-3.96,7.54-6.9l12.96,7.41
		c-3.32,5.02-7.66,8.92-13.03,11.69c-5.36,2.77-11.3,4.15-17.82,4.15c-7.02,0-13.36-1.59-19-4.76s-10.06-7.56-13.25-13.16
		C848.83,563.57,847.23,557.3,847.23,550.36z"/>
	<path class="st0" d="M475.32,522.91c-5.8-4.98-13.95-7.47-24.44-7.47c-5.46,0-10.83,0.73-16.12,2.19s-8.36,2.55-12.11,5.21
		l5.09,12.8c0,0,6.13-2.7,8.69-3.44c3.58-1.03,7.14-1.74,10.81-1.74c5.37,0,11.68,0.7,14.28,3.1s3.29,6.26,3.29,10.56h-17.57
		c-6.99,0-12.67,0.88-17.02,2.64c-4.35,1.76-7.53,4.19-9.53,7.28c-2.01,3.09-3.01,6.7-3.01,10.82c0,3.95,1.02,7.51,3.07,10.69
		c2.05,3.18,4.99,5.69,8.83,7.54s8.44,2.77,13.82,2.77c6.06,0,11-1.16,14.84-3.48c2.6-1.57,4.64-3.64,6.14-6.2v8.65h18.68v-39.54
		C483.07,534.72,481.12,527.9,475.32,522.91z M464.82,563.33c-1.36,3.51-3.53,6.16-6.53,7.96s-6.38,2.7-10.16,2.7
		c-3.97,0-7.09-0.85-9.36-2.55s-3.41-4.02-3.41-6.94c0-2.63,0.99-4.82,2.97-6.57s5.63-2.63,10.95-2.63h15.52v8.03H464.82z"/>
	<polygon class="st0" points="340.56,491.98 340.56,504.02 340.56,584.98 340.56,585.37 359.13,585.37 359.13,549 403.7,549 
		403.7,547.23 403.7,537.43 403.7,533.19 359.13,533.19 359.13,506.9 409.25,506.9 409.25,506.09 409.25,495.33 409.25,491.98 	"/>
	<path class="st0" d="M622.88,569.25c-2.81,1.85-6.19,2.78-10.13,2.78c-2.95,0-5.98-1.36-7.83-3.69c-2.01-2.55-1.67-6.7-1.67-10.3
		c0-7.21,0-14.43,0-21.64c0-2.23,0-4.47,0-6.7H623v-13.27h-19.75v-18.9h-16.74v18.9H575.7v13.27h10.92c0,3.15,0,6.3,0,9.45
		c0,7.63,0,15.27,0,22.9c0,4.73,0.06,10.1,2.77,14.19c1.91,2.84,4.58,5.3,7.3,6.91c5.45,3.22,12.02,3.38,18.1,2.17
		c1.58-0.18,3.15-0.47,4.7-0.89c2.75-0.74,4.96-1.75,6.63-3.02L622.88,569.25z"/>
	<path class="st2" d="M970.8,581.79l-2.8-9.55c-2.64,1.85-5.8,2.78-9.5,2.78c-2.77,0-6.83-1.71-8.56-4.04
		c-1.89-2.55-1.56-9.74-1.56-13.34c0-7.21,0-12.19,0-19.4c0-2.23,0-7.99,0-10.22l19.25-0.17v-10.74H949.1v-20.07h-15.7v20.07h-10.14
		v10.74l11.09,0.04c0,3.15,0,7.95,0,11.1c0,7.63,0,15.35,0,22.99c0,4.73,0.52,8.5,2.25,12.65c1.29,3.1,3.8,6.41,6.35,8.02
		c4.4,2.77,6.6,3.23,12.26,3.35c2.28,0.05,4.56-0.2,6.77-0.76C964.62,584.57,968.17,583.44,970.8,581.79z"/>
</g>
</svg>
